# xmcd CD database file
# Copyright (C) 1996 Ti Kan
#
# Track frame offsets:
#  150
#  12832
#  34837
#  53257
#  76077
#  93030
#  101335
#  118922
#  138097
#  159395
#
# Disc length: 2510 seconds
#
# Revision: 1
# Processed by: cddbd v1.4b41PL1 Copyright (c) Steve Scherf et al.
# Submitted via: CDWizzard Release:4.14
#
DISCID=6309cc0a
DTITLE=Urban Turban - URBAN TURBAN
DYEAR=1900
DGENRE=
TTITLE0=Rollin' and Tumblin'
TTITLE1=Knock on Wood
TTITLE2=Wang Dang Doodle
TTITLE3=Voodoo Child
TTITLE4=Let's Work TOgether
TTITLE5=Punklira
TTITLE6=That's All Right Mama
TTITLE7=300 Pounds Of Joy
TTITLE8=Folsom Prisom Blues
TTITLE9=Hoochie Coochie Man
EXTD=
EXTT0=
EXTT1=
EXTT2=
EXTT3=
EXTT4=
EXTT5=
EXTT6=
EXTT7=
EXTT8=
EXTT9=
PLAYORDER=
